<svg width="33" height="32" viewBox="0 0 33 32" fill="none" xmlns="http://www.w3.org/2000/svg">
<g id="Vector">
<path d="M13.0764 11.1041C13.0764 11.5756 13.1693 12.0425 13.3497 12.4781C13.5302 12.9137 13.7946 13.3095 14.128 13.6428C14.4614 13.9762 14.8572 14.2407 15.2928 14.4211C15.7284 14.6016 16.1952 14.6944 16.6667 14.6944C17.1382 14.6944 17.6051 14.6016 18.0407 14.4211C18.4763 14.2407 18.872 13.9762 19.2054 13.6428C19.5388 13.3095 19.8033 12.9137 19.9837 12.4781C20.1641 12.0425 20.257 11.5756 20.257 11.1041C20.257 10.6327 20.1641 10.1658 19.9837 9.7302C19.8033 9.29461 19.5388 8.89882 19.2054 8.56543C18.872 8.23204 18.4763 7.96758 18.0407 7.78716C17.6051 7.60673 17.1382 7.51386 16.6667 7.51386C16.1952 7.51386 15.7284 7.60673 15.2928 7.78716C14.8572 7.96758 14.4614 8.23204 14.128 8.56543C13.7946 8.89882 13.5302 9.29461 13.3497 9.7302C13.1693 10.1658 13.0764 10.6327 13.0764 11.1041Z" stroke="#8BB0A8" stroke-width="1.5" stroke-linecap="round" stroke-linejoin="round"/>
<path d="M21.2362 20.5694C21.2362 19.3575 20.7547 18.1953 19.8978 17.3383C19.0409 16.4814 17.8786 16 16.6667 16C15.4548 16 14.2926 16.4814 13.4356 17.3383C12.5787 18.1953 12.0973 19.3575 12.0973 20.5694V24.4861H14.164L14.7084 31.0139H18.6251L19.1695 24.4861H21.2362V20.5694Z" stroke="#8BB0A8" stroke-width="1.5" stroke-linecap="round" stroke-linejoin="round"/>
<path d="M2.632 3.92358C2.632 4.70266 2.94148 5.44982 3.49237 6.00071C4.04326 6.5516 4.79043 6.86108 5.5695 6.86108C6.34857 6.86108 7.09574 6.5516 7.64663 6.00071C8.19751 5.44982 8.507 4.70266 8.507 3.92358C8.507 3.14451 8.19751 2.39735 7.64663 1.84646C7.09574 1.29557 6.34857 0.986084 5.5695 0.986084C4.79043 0.986084 4.04326 1.29557 3.49237 1.84646C2.94148 2.39735 2.632 3.14451 2.632 3.92358Z" stroke="#8BB0A8" stroke-width="1.5" stroke-linecap="round" stroke-linejoin="round"/>
<path d="M5.5695 8.16664C4.53073 8.16664 3.53451 8.57929 2.8 9.3138C2.06548 10.0483 1.65283 11.0445 1.65283 12.0833V15.3472H3.61117L4.26394 21.2222H6.87505L7.52783 15.3472H9.48617V12.0833C9.48617 11.0445 9.07352 10.0483 8.339 9.3138C7.60448 8.57929 6.60826 8.16664 5.5695 8.16664Z" stroke="#8BB0A8" stroke-width="1.5" stroke-linecap="round" stroke-linejoin="round"/>
<path d="M24.8264 3.92358C24.8264 4.30934 24.9024 4.69132 25.05 5.04772C25.1977 5.40411 25.414 5.72794 25.6868 6.00071C25.9596 6.27348 26.2834 6.48986 26.6398 6.63748C26.9962 6.7851 27.3782 6.86108 27.7639 6.86108C28.1497 6.86108 28.5317 6.7851 28.8881 6.63748C29.2445 6.48986 29.5683 6.27348 29.8411 6.00071C30.1138 5.72794 30.3302 5.40411 30.4778 5.04772C30.6255 4.69132 30.7014 4.30934 30.7014 3.92358C30.7014 3.53783 30.6255 3.15585 30.4778 2.79945C30.3302 2.44306 30.1138 2.11923 29.8411 1.84646C29.5683 1.57369 29.2445 1.35731 28.8881 1.20969C28.5317 1.06206 28.1497 0.986084 27.7639 0.986084C27.3782 0.986084 26.9962 1.06206 26.6398 1.20969C26.2834 1.35731 25.9596 1.57369 25.6868 1.84646C25.414 2.11923 25.1977 2.44306 25.05 2.79945C24.9024 3.15585 24.8264 3.53783 24.8264 3.92358Z" stroke="#8BB0A8" stroke-width="1.5" stroke-linecap="round" stroke-linejoin="round"/>
<path d="M27.7639 8.16664C26.7252 8.16664 25.729 8.57929 24.9944 9.3138C24.2599 10.0483 23.8473 11.0445 23.8473 12.0833V15.3472H25.8056L26.4584 21.2222H29.0695L29.7223 15.3472H31.6806V12.0833C31.6806 11.0445 31.268 10.0483 30.5334 9.3138C29.7989 8.57929 28.8027 8.16664 27.7639 8.16664Z" stroke="#8BB0A8" stroke-width="1.5" stroke-linecap="round" stroke-linejoin="round"/>
</g>
</svg>
