<svg width="62" height="29" viewBox="0 0 62 29" fill="none" xmlns="http://www.w3.org/2000/svg">
<g clip-path="url(#clip0_2191_7310)">
<path d="M61.9904 7.44558C61.8748 3.37032 58.5705 0.077283 54.4956 2.69134e-05C54.4764 2.69134e-05 54.4667 2.69134e-05 54.4475 2.69134e-05C54.4378 2.69134e-05 54.4282 2.69134e-05 54.4186 2.69134e-05C54.3993 2.69134e-05 54.3704 2.69134e-05 54.3511 2.69134e-05C54.3319 2.69134e-05 54.3126 2.69134e-05 54.2933 2.69134e-05C54.2837 2.69134e-05 54.2644 2.69134e-05 54.2548 2.69134e-05C54.2355 2.69134e-05 54.2259 2.69134e-05 54.2066 2.69134e-05C54.1874 2.69134e-05 54.1777 2.69134e-05 54.1585 2.69134e-05C54.1296 2.69134e-05 54.1007 2.69134e-05 54.0814 2.69134e-05C54.0621 2.69134e-05 54.0525 2.69134e-05 54.0332 2.69134e-05C54.0236 2.69134e-05 54.014 2.69134e-05 54.0043 2.69134e-05C53.9851 2.69134e-05 53.9658 2.69134e-05 53.9465 2.69134e-05C53.9465 2.69134e-05 53.9465 2.69134e-05 53.9369 2.69134e-05C52.0488 0.106254 50.2955 0.888472 48.9469 2.2308C48.1473 3.03233 47.5597 3.97872 47.184 5.00236C47.184 5.00236 47.184 5.01202 47.184 5.02167C47.184 5.04099 47.1743 5.05064 47.1647 5.06996V0.057969H46.9335C43.2921 0.057969 40.2191 2.64605 39.458 6.07429C38.7933 4.0946 36.9245 2.6557 34.7281 2.6557C32.5317 2.6557 30.6821 4.07529 30.0078 6.03566C29.6995 4.60642 28.9963 3.29307 27.9462 2.24045C26.5012 0.791902 24.5746 -0.0096301 22.5323 -0.0096301C18.9391 -0.0096301 15.9239 2.48188 15.105 5.83286C14.7775 4.48088 14.0935 3.24478 13.0917 2.2308C11.6467 0.782245 9.72001 -0.0192871 7.67775 -0.0192871C3.43909 2.69134e-05 0 3.44758 0 7.67735V7.90912H14.8738C14.9991 12.0327 18.3707 15.3547 22.5227 15.3547H22.7539V7.90912H29.738C29.8536 10.5648 32.05 12.6893 34.7281 12.6893C36.9148 12.6893 38.7741 11.2698 39.4484 9.29973C40.1902 12.7569 43.2632 15.3547 46.9239 15.3547H47.1551V10.2558C48.1377 13.0273 50.6712 15.0746 53.6961 15.3354C53.7443 15.3354 53.7924 15.3354 53.8502 15.345H53.8695C53.8791 15.345 53.8887 15.345 53.908 15.345C53.9176 15.345 53.9369 15.345 53.9465 15.345C53.9465 15.345 53.9465 15.345 53.9562 15.345C53.9658 15.345 53.9851 15.345 53.9947 15.345C54.0043 15.345 54.0236 15.345 54.0332 15.345C54.0332 15.345 54.0429 15.345 54.0525 15.345C54.0621 15.345 54.0814 15.345 54.091 15.345C54.1007 15.345 54.1103 15.345 54.1199 15.345C54.1199 15.345 54.1296 15.345 54.1392 15.345C54.1488 15.345 54.1681 15.345 54.1777 15.345C54.197 15.345 54.2066 15.345 54.2259 15.345C54.2355 15.345 54.2548 15.345 54.2645 15.345C54.2837 15.345 54.303 15.345 54.3222 15.345C54.3415 15.345 54.3704 15.345 54.3897 15.345C54.3993 15.345 54.409 15.345 54.4186 15.345C54.4379 15.345 54.4475 15.345 54.4667 15.345C58.5416 15.2678 61.8459 11.9747 61.9615 7.89946C61.9615 7.82221 61.9615 7.74495 61.9615 7.66769C61.9615 7.59044 61.9615 7.51318 61.9615 7.43593L61.9904 7.44558ZM0.481666 7.44558C0.606899 3.57312 3.76662 0.453906 7.65848 0.453906C9.58515 0.453906 11.3866 1.20715 12.7449 2.56879C14.0454 3.87249 14.7775 5.60109 14.8353 7.44558H0.481666ZM22.2915 14.8718C18.5056 14.7463 15.4615 11.7043 15.3459 7.89946H22.2915V14.8718ZM15.3459 7.44558C15.4711 3.57312 18.6308 0.453906 22.5227 0.453906C24.4493 0.453906 26.2508 1.20715 27.6091 2.56879C28.9192 3.87249 29.6417 5.60109 29.6995 7.44558H15.3459ZM34.7281 12.2355C32.3005 12.2355 30.3257 10.3137 30.2101 7.90912H39.2461C39.1209 10.3137 37.1557 12.2355 34.7281 12.2355ZM30.2101 7.44558C30.3353 5.04099 32.3005 3.11924 34.7281 3.11924C37.1557 3.11924 39.1209 5.04099 39.2461 7.44558H30.2101ZM46.7023 14.8718C42.9164 14.7463 39.8723 11.7043 39.7567 7.89946H46.7023V14.8718ZM46.7023 7.44558H39.7567C39.9108 3.67935 42.9453 0.656704 46.7023 0.54082V7.44558ZM54.3608 14.9008C50.4689 14.9008 47.3092 11.7816 47.184 7.90912H61.5376C61.4124 11.7816 58.2526 14.9008 54.3608 14.9008ZM47.184 7.44558C47.2418 5.60109 47.9643 3.88215 49.2744 2.56879C50.6327 1.20715 52.4438 0.453906 54.3704 0.453906C58.2623 0.453906 61.422 3.57312 61.5472 7.44558H47.1936H47.184Z" fill="white"/>
<path d="M37.7915 21.9987C34.9785 21.9987 33.6395 23.4666 33.6395 25.4752C33.6395 26.2671 33.8322 27.2521 34.6606 27.9667C35.3542 28.5848 36.3657 28.9324 37.936 28.9324C39.3906 28.9324 40.2672 28.5268 40.8645 27.9957C41.5966 27.3197 41.8953 26.354 41.8953 25.398C41.8953 23.0706 40.1035 21.9987 37.8011 21.9987H37.7915ZM37.7626 27.5611C37.5217 27.5611 37.0401 27.5322 36.7318 27.0397C36.4332 26.5568 36.3946 25.9194 36.3946 25.4849C36.3946 24.5095 36.6258 23.399 37.7915 23.399C38.8511 23.399 39.1498 24.355 39.1498 25.4849C39.1498 26.4023 38.9186 27.5611 37.7626 27.5611ZM28.9866 24.8475V21.1875H33.389V19.372H26.1737V28.7586L22.1566 19.3527H18.7079L14.6812 28.7876H17.5037L18.1973 26.8948L18.862 25.1469L20.2685 21.1972H20.307L21.6268 24.9441H20.1625C19.8831 24.9537 18.9583 25.0889 18.284 26.6824H22.2433L22.9851 28.7876H28.977V24.9151H31.5105C31.7899 24.9055 32.7147 24.7703 33.389 23.1769H30.8266C30.5569 23.1865 29.6513 23.3217 28.9674 24.8572L28.9866 24.8475ZM55.8443 19.0726C55.0736 19.0726 53.0603 19.1789 51.7405 20.386C50.4111 21.5931 50.2955 23.4762 50.2955 24.1039C50.2955 24.1619 50.2955 24.2102 50.2955 24.2584C50.257 25.5332 49.8427 27.0879 47.8679 27.0879C45.8931 27.0879 45.4307 25.6008 45.4307 24.0943C45.4307 22.4719 45.9509 20.9847 47.8775 20.9847C48.0991 20.9847 48.4266 21.004 48.7542 21.062C49.0143 21.0813 50.0258 21.0427 50.7386 19.5651C49.9776 19.2947 48.7831 19.0823 47.9835 19.0823C47.1839 19.0823 45.1995 19.1885 43.8701 20.3956C42.5407 21.6028 42.4251 23.4859 42.4251 24.1136C42.4251 27.6287 45.0357 29.0193 47.8294 29.0193C48.1184 29.0193 48.417 29 48.7156 28.9711C49.1684 28.8938 50.9409 28.5268 51.4033 27.3873C52.4245 28.5268 54.014 29.029 55.6805 29.029C58.1852 29.029 61.1619 27.8798 61.1619 24.1136C61.1619 21.8152 60.0252 19.1016 55.825 19.1016L55.8443 19.0726ZM55.7287 27.0783C53.7924 27.0783 53.3011 25.5911 53.3011 24.0846C53.3011 22.4622 53.8213 20.9751 55.748 20.9751C56.3934 20.9751 57.0774 21.1296 57.5012 21.6511C57.8191 22.0663 58.1659 22.723 58.1659 24.046C58.1659 25.369 57.8191 27.0783 55.7287 27.0783Z" fill="white"/>
</g>
<defs>
<clipPath id="clip0_2191_7310">
<rect width="62" height="29" fill="white"/>
</clipPath>
</defs>
</svg>
