<svg width="24" height="24" viewBox="0 0 24 24" fill="none" xmlns="http://www.w3.org/2000/svg">
<g id="Group">
<g id="check-badge">
<path id="Shape" d="M15.75 9.74899L11.769 15.057C11.6385 15.2308 11.439 15.3394 11.2222 15.3547C11.0055 15.3701 10.7927 15.2907 10.639 15.137L8.25 12.749" stroke="#8BB0A8" stroke-linecap="round" stroke-linejoin="round"/>
<path id="Shape_2" fill-rule="evenodd" clip-rule="evenodd" d="M10.73 1.357C11.0394 0.972425 11.5064 0.748764 12 0.748764C12.4936 0.748764 12.9606 0.972425 13.27 1.357L14.782 3.238C15.13 3.67168 15.6752 3.8979 16.228 3.838L18.628 3.577C19.1201 3.52233 19.6104 3.69432 19.9606 4.04445C20.3107 4.39458 20.4827 4.88487 20.428 5.377L20.167 7.777C20.1071 8.32981 20.3333 8.87499 20.767 9.223L22.648 10.735C23.0326 11.0444 23.2562 11.5114 23.2562 12.005C23.2562 12.4986 23.0326 12.9656 22.648 13.275L20.761 14.78C20.3275 15.1286 20.1013 15.6739 20.161 16.227L20.422 18.627C20.4771 19.1192 20.3052 19.6098 19.955 19.96C19.6048 20.3102 19.1142 20.4821 18.622 20.427L16.222 20.166C15.6692 20.1059 15.1239 20.3322 14.776 20.766L13.27 22.64C12.9608 23.0249 12.4937 23.2488 12 23.2488C11.5063 23.2488 11.0392 23.0249 10.73 22.64L9.219 20.76C8.87056 20.3263 8.3251 20.1001 7.772 20.16L5.372 20.421C4.87969 20.4765 4.38892 20.3047 4.0386 19.9544C3.68828 19.6041 3.51654 19.1133 3.572 18.621L3.833 16.221C3.89287 15.6679 3.66669 15.1224 3.233 14.774L1.353 13.263C0.968084 12.9538 0.744167 12.4867 0.744167 11.993C0.744167 11.4993 0.968084 11.0322 1.353 10.723L3.233 9.211C3.66684 8.86311 3.89309 8.31784 3.833 7.765L3.572 5.365C3.51694 4.87278 3.6888 4.38225 4.03903 4.03203C4.38925 3.6818 4.87978 3.50994 5.372 3.565L7.772 3.826C8.32507 3.88568 8.87045 3.65954 9.219 3.226L10.73 1.357Z" stroke="#8BB0A8" stroke-linecap="round" stroke-linejoin="round"/>
</g>
</g>
</svg>
