<svg width="85" height="112" viewBox="0 0 85 112" fill="none" xmlns="http://www.w3.org/2000/svg">
<g id="Group 230055">
<g id="Group">
<path id="Vector" d="M2.75 87V2H82.25V9" stroke="#3D7C6E" stroke-width="4" stroke-linecap="round" stroke-linejoin="round"/>
<path id="Vector_2" d="M2.75 102.5V110H59.25L82.25 87V25.5" stroke="#3D7C6E" stroke-width="4" stroke-linecap="round" stroke-linejoin="round"/>
<path id="Vector_3" d="M59.25 110V86.5H82.25" stroke="#3D7C6E" stroke-width="4" stroke-linecap="round" stroke-linejoin="round"/>
<path id="Vector_4" d="M82.25 19.1001C83.3546 19.1001 84.25 18.2047 84.25 17.1001C84.25 15.9955 83.3546 15.1001 82.25 15.1001C81.1454 15.1001 80.25 15.9955 80.25 17.1001C80.25 18.2047 81.1454 19.1001 82.25 19.1001Z" fill="#3D7C6E" stroke="#3D7C6E"/>
<path id="Vector_5" d="M2.75 97C3.85457 97 4.75 96.1046 4.75 95C4.75 93.8954 3.85457 93 2.75 93C1.64543 93 0.75 93.8954 0.75 95C0.75 96.1046 1.64543 97 2.75 97Z" fill="#3D7C6E" stroke="#3D7C6E"/>
</g>
<g id="Group_2">
<g id="Group_3">
<g id="Group_4">
<path id="Vector_6" d="M20.6504 24.8999L31.9504 36.1999" stroke="#3D7C6E" stroke-width="4" stroke-linecap="round" stroke-linejoin="round"/>
<path id="Vector_7" d="M31.9504 24.8999L20.6504 36.1999" stroke="#3D7C6E" stroke-width="4" stroke-linecap="round" stroke-linejoin="round"/>
</g>
<g id="Group_5">
<path id="Vector_8" d="M52.9502 24.8999L64.2502 36.1999" stroke="#3D7C6E" stroke-width="4" stroke-linecap="round" stroke-linejoin="round"/>
<path id="Vector_9" d="M64.2502 24.8999L52.9502 36.1999" stroke="#3D7C6E" stroke-width="4" stroke-linecap="round" stroke-linejoin="round"/>
</g>
</g>
<path id="Vector_10" d="M18.4502 66.5001C25.6502 60.2001 45.2502 51.3001 66.4502 66.5001" stroke="#3D7C6E" stroke-width="4" stroke-linecap="round" stroke-linejoin="round"/>
</g>
</g>
</svg>
