<svg width="40" height="38" viewBox="0 0 40 38" fill="none" xmlns="http://www.w3.org/2000/svg">
<path id="Vector" d="M11.0241 23.5177V30.2413M30.6074 20.2538V25.2149M1.23242 30.8288C5.4768 29.7909 9.90629 29.7703 14.1602 30.7685C18.414 31.7668 22.3719 33.7557 25.7116 36.5732M19.298 28.7888C22.1763 27.0082 25.3925 25.8438 28.7435 25.3691C32.0945 24.8943 35.5076 25.1197 38.7671 26.0309M20.3588 20.8902L17.0949 16.6798C17.3806 16.972 17.7706 17.1387 18.1792 17.1433C18.5877 17.1479 18.9814 16.99 19.2736 16.7043C19.5657 16.4186 19.7324 16.0286 19.737 15.62C19.7416 15.2115 19.5837 14.8178 19.298 14.5256L14.9244 9.30342C16.4421 10.8048 18.4984 8.71592 16.9807 7.0187L12.2154 1.94335C12.0628 1.7803 11.8783 1.65033 11.6733 1.56147C11.4684 1.47261 11.2474 1.42676 11.0241 1.42676C10.8007 1.42676 10.5798 1.47261 10.3748 1.56147C10.1699 1.65033 9.98542 1.7803 9.83277 1.94335L5.06749 7.0187C3.54978 8.65065 5.60603 10.8048 7.12374 9.30342L2.78277 14.5256C2.64132 14.6703 2.52976 14.8414 2.45444 15.0292C2.37912 15.217 2.34152 15.4177 2.3438 15.62C2.34839 16.0286 2.5151 16.4186 2.80725 16.7043C3.0994 16.99 3.49307 17.1479 3.90164 17.1433C4.10395 17.141 4.30382 17.0989 4.48986 17.0194C4.6759 16.9399 4.84445 16.8245 4.98589 16.6798L1.72201 20.8902C1.50493 21.1038 1.35636 21.3772 1.2952 21.6756C1.23404 21.9739 1.26307 22.2837 1.37858 22.5655C1.4941 22.8473 1.69087 23.0883 1.94385 23.2579C2.19682 23.4274 2.49454 23.5179 2.79909 23.5177H19.2817C19.5863 23.5179 19.884 23.4274 20.137 23.2579C20.3899 23.0883 20.5867 22.8473 20.7022 22.5655C20.8178 22.2837 20.8468 21.9739 20.7856 21.6756C20.7245 21.3772 20.5759 21.1038 20.3588 20.8902ZM37.5595 17.7732L33.855 12.8774C35.1442 14.3135 36.6946 12.2246 35.6175 10.7232L31.913 5.82738C31.761 5.6247 31.5639 5.4602 31.3372 5.34689C31.1106 5.23359 30.8608 5.1746 30.6074 5.1746C30.3541 5.1746 30.1042 5.23359 29.8776 5.34689C29.651 5.4602 29.4539 5.6247 29.3019 5.82738L25.6137 10.6579C24.5366 12.1593 26.0706 14.2482 27.3599 12.8121L23.6717 17.7079C23.4982 17.902 23.3776 18.1374 23.3214 18.3915C23.2651 18.6456 23.2752 18.9099 23.3506 19.159C23.426 19.4081 23.5641 19.6336 23.7518 19.8139C23.9395 19.9942 24.1704 20.1232 24.4224 20.1885H36.7925C37.0342 20.1202 37.2552 19.993 37.4356 19.8182C37.616 19.6435 37.7502 19.4267 37.8263 19.1874C37.9023 18.948 37.9177 18.6935 37.8711 18.4467C37.8246 18.1999 37.7175 17.9685 37.5595 17.7732Z" stroke="#8BB0A8" stroke-width="1.5" stroke-linecap="round" stroke-linejoin="round"/>
</svg>
