<svg width="29" height="32" viewBox="0 0 29 32" fill="none" xmlns="http://www.w3.org/2000/svg">
<g id="Group 17">
<g id="Group 15">
<path id="Vector" d="M3.92201 11.9247C2.91261 11.5358 1.78287 12.0802 1.4358 13.1048C1.01496 14.3471 1.93877 15.6355 3.25053 15.6355H4.91434C5.9232 15.6355 6.8238 16.0977 7.4168 16.8217C7.33557 14.5845 5.90916 12.6904 3.92201 11.9247Z" stroke="#8BB0A8" stroke-width="1.5" stroke-miterlimit="10" stroke-linecap="round" stroke-linejoin="round"/>
<path id="Vector_2" d="M10.9119 11.9247C11.9213 11.5358 13.051 12.0802 13.3981 13.1048C13.8189 14.3471 12.8951 15.6355 11.5834 15.6355H9.91955C8.91069 15.6355 8.00999 16.0977 7.41699 16.8217C7.49823 14.5845 8.92473 12.6904 10.9119 11.9247Z" stroke="#8BB0A8" stroke-width="1.5" stroke-miterlimit="10" stroke-linecap="round" stroke-linejoin="round"/>
<path id="Vector_3" d="M7.41699 21.0952V16.8218" stroke="#8BB0A8" stroke-width="1.5" stroke-miterlimit="10" stroke-linecap="round" stroke-linejoin="round"/>
<path id="Vector_4" d="M7.41716 21.0951C4.98349 21.0951 2.97145 22.9001 2.64678 25.2445C2.59798 25.5965 2.87057 25.9112 3.226 25.9112H11.6085C11.9638 25.9112 12.2364 25.5964 12.1877 25.2445C11.863 22.9001 9.85084 21.0951 7.41716 21.0951Z" stroke="#8BB0A8" stroke-width="1.5" stroke-miterlimit="10" stroke-linecap="round" stroke-linejoin="round"/>
</g>
<g id="Group 16">
<path id="Vector_5" d="M17.7545 16.9666C16.7451 16.5776 15.6154 17.122 15.2683 18.1466C14.8475 19.389 15.7713 20.6774 17.083 20.6774H18.7469C19.7557 20.6774 20.6563 21.1396 21.2493 21.8635C21.1681 19.6264 19.7417 17.7323 17.7545 16.9666Z" stroke="#8BB0A8" stroke-width="1.5" stroke-miterlimit="10" stroke-linecap="round" stroke-linejoin="round"/>
<path id="Vector_6" d="M24.7439 16.9666C25.7533 16.5776 26.883 17.122 27.2301 18.1466C27.651 19.389 26.7271 20.6774 25.4154 20.6774H23.7516C22.7427 20.6774 21.842 21.1396 21.249 21.8635C21.3303 19.6264 22.7568 17.7323 24.7439 16.9666Z" stroke="#8BB0A8" stroke-width="1.5" stroke-miterlimit="10" stroke-linecap="round" stroke-linejoin="round"/>
<path id="Vector_7" d="M21.249 26.137V21.8636" stroke="#8BB0A8" stroke-width="1.5" stroke-miterlimit="10" stroke-linecap="round" stroke-linejoin="round"/>
<path id="Vector_8" d="M21.2492 26.137C18.8155 26.137 16.8035 27.942 16.4788 30.2863C16.43 30.6384 16.7026 30.9531 17.058 30.9531H25.4405C25.7959 30.9531 26.0685 30.6383 26.0198 30.2863C25.695 27.942 23.6829 26.137 21.2492 26.137Z" stroke="#8BB0A8" stroke-width="1.5" stroke-miterlimit="10" stroke-linecap="round" stroke-linejoin="round"/>
</g>
<path id="Vector_9" d="M7.51663 1.22935C7.3681 0.985887 7.00025 0.985887 6.85173 1.22935C6.21998 2.26484 4.90869 4.58754 4.90869 6.02581C4.90869 7.22561 5.92745 8.19829 7.18418 8.19829C8.4409 8.19829 9.45967 7.22567 9.45967 6.02581C9.45967 4.58754 8.14832 2.26484 7.51663 1.22935Z" stroke="#8BB0A8" stroke-width="1.5" stroke-miterlimit="10" stroke-linecap="round" stroke-linejoin="round"/>
<path id="Vector_10" d="M21.1695 7.73069C21.0209 7.48723 20.6531 7.48723 20.5046 7.73069C19.8728 8.76618 18.5615 11.0889 18.5615 12.5272C18.5615 13.727 19.5803 14.6996 20.837 14.6996C22.0937 14.6996 23.1125 13.727 23.1125 12.5272C23.1125 11.0889 21.8011 8.76618 21.1695 7.73069Z" stroke="#8BB0A8" stroke-width="1.5" stroke-miterlimit="10" stroke-linecap="round" stroke-linejoin="round"/>
</g>
</svg>
