<svg width="24" height="24" viewBox="0 0 24 24" fill="none" xmlns="http://www.w3.org/2000/svg">
<g id="Sidebar / Markers">
<path id="Vector" d="M4.512 13.7C3.235 12.047 0.75 8.6 0.75 6.75C0.75 4.26472 2.76472 2.25 5.25 2.25C7.73528 2.25 9.75 4.26472 9.75 6.75M14.25 6.75C14.25 4.26472 16.2647 2.25 18.75 2.25C21.2353 2.25 23.25 4.26472 23.25 6.75C23.25 8.591 20.779 12.028 19.499 13.684M12 13.875C12.2071 13.875 12.375 14.0429 12.375 14.25C12.375 14.4571 12.2071 14.625 12 14.625C11.7929 14.625 11.625 14.4571 11.625 14.25C11.625 14.0429 11.7929 13.875 12 13.875ZM12 9.75C14.4853 9.75 16.5 11.7647 16.5 14.25C16.5 16.171 13.812 19.826 12.591 21.388C12.4489 21.5699 12.2309 21.6762 12 21.6762C11.7691 21.6762 11.5511 21.5699 11.409 21.388C10.188 19.827 7.5 16.171 7.5 14.25C7.5 11.7647 9.51472 9.75 12 9.75ZM5.25 6.375C5.45711 6.375 5.625 6.54289 5.625 6.75C5.625 6.95711 5.45711 7.125 5.25 7.125C5.04289 7.125 4.875 6.95711 4.875 6.75C4.875 6.54289 5.04289 6.375 5.25 6.375ZM18.75 6.375C18.9571 6.375 19.125 6.54289 19.125 6.75C19.125 6.95711 18.9571 7.125 18.75 7.125C18.5429 7.125 18.375 6.95711 18.375 6.75C18.375 6.54289 18.5429 6.375 18.75 6.375Z" stroke="#8BB0A8" stroke-linecap="round" stroke-linejoin="round"/>
</g>
</svg>
