<svg width="24" height="24" viewBox="0 0 24 24" fill="none" xmlns="http://www.w3.org/2000/svg">
<path d="M22.8682 23.25L19.0802 19.462M11.1802 23.188C8.62654 23.4892 6.06592 22.6846 4.1435 20.9769C2.22109 19.2692 1.12018 16.8213 1.11819 14.25C1.11424 12.4879 1.62972 10.7638 2.60019 9.293M12.7592 5.643C14.3146 6.12152 15.7111 7.01281 16.8002 8.222M1.86719 10.65H3.81819C4.8123 10.65 5.61819 11.4559 5.61819 12.45V14.4C5.61808 14.8774 5.80765 15.3353 6.14519 15.673L7.53119 17.059C8.01334 17.5411 8.18175 18.2542 7.96619 18.901L7.60019 20.016C7.48507 20.3636 7.26626 20.6675 6.97319 20.887L5.50919 21.981M10.1182 3.75C10.1182 5.112 8.08819 8.292 7.36819 9.378C7.3126 9.46179 7.21874 9.51217 7.11819 9.51217C7.01763 9.51217 6.92377 9.46179 6.86819 9.378C6.14719 8.292 4.11819 5.111 4.11819 3.749C4.11819 2.09215 5.46133 0.749001 7.11819 0.749001C8.77504 0.749001 10.1182 2.09315 10.1182 3.75ZM7.11819 3.375C7.32529 3.375 7.49319 3.54289 7.49319 3.75C7.49319 3.95711 7.32529 4.125 7.11819 4.125C6.91108 4.125 6.74319 3.95711 6.74319 3.75C6.74319 3.54289 6.91108 3.375 7.11819 3.375ZM15.3682 21C18.2677 21 20.6182 18.6495 20.6182 15.75C20.6182 12.8505 18.2677 10.5 15.3682 10.5C12.4687 10.5 10.1182 12.8505 10.1182 15.75C10.1182 18.6495 12.4687 21 15.3682 21Z" stroke="#FBF0D4" stroke-linecap="round" stroke-linejoin="round"/>
</svg>
