<svg width="24" height="22" viewBox="0 0 24 22" fill="none" xmlns="http://www.w3.org/2000/svg">
<path d="M4.512 12.7C3.235 11.047 0.75 7.6 0.75 5.75C0.75 3.26472 2.76472 1.25 5.25 1.25C7.73528 1.25 9.75 3.26472 9.75 5.75M14.25 5.75C14.25 3.26472 16.2647 1.25 18.75 1.25C21.2353 1.25 23.25 3.26472 23.25 5.75C23.25 7.591 20.779 11.028 19.499 12.684M12 12.875C12.2071 12.875 12.375 13.0429 12.375 13.25C12.375 13.4571 12.2071 13.625 12 13.625C11.7929 13.625 11.625 13.4571 11.625 13.25C11.625 13.0429 11.7929 12.875 12 12.875ZM12 8.75C14.4853 8.75 16.5 10.7647 16.5 13.25C16.5 15.171 13.812 18.826 12.591 20.388C12.4489 20.5699 12.2309 20.6762 12 20.6762C11.7691 20.6762 11.5511 20.5699 11.409 20.388C10.188 18.827 7.5 15.171 7.5 13.25C7.5 10.7647 9.51472 8.75 12 8.75ZM5.25 5.375C5.45711 5.375 5.625 5.54289 5.625 5.75C5.625 5.95711 5.45711 6.125 5.25 6.125C5.04289 6.125 4.875 5.95711 4.875 5.75C4.875 5.54289 5.04289 5.375 5.25 5.375ZM18.75 5.375C18.9571 5.375 19.125 5.54289 19.125 5.75C19.125 5.95711 18.9571 6.125 18.75 6.125C18.5429 6.125 18.375 5.95711 18.375 5.75C18.375 5.54289 18.5429 5.375 18.75 5.375Z" stroke="#FFFFFF" stroke-linecap="round" stroke-linejoin="round"/>
</svg>
